<mxfile host="Electron" agent="Mozilla/5.0 (Windows NT 10.0; Win64; x64) AppleWebKit/537.36 (KHTML, like Gecko) draw.io/25.0.2 Chrome/128.0.6613.186 Electron/32.2.5 Safari/537.36" version="25.0.2">
  <diagram name="Page-1" id="nWuks5Zo_hqAo-drOenx">
    <mxGraphModel dx="1219" dy="722" grid="1" gridSize="10" guides="1" tooltips="1" connect="1" arrows="1" fold="1" page="1" pageScale="1" pageWidth="850" pageHeight="1100" math="0" shadow="0">
      <root>
        <mxCell id="0" />
        <mxCell id="1" parent="0" />
        <mxCell id="jfasmR0OCqM8boGMBwTv-1" value="" style="rounded=0;whiteSpace=wrap;html=1;fillColor=none;" parent="1" vertex="1">
          <mxGeometry x="162.5" y="285" width="120" height="60" as="geometry" />
        </mxCell>
        <mxCell id="jfasmR0OCqM8boGMBwTv-2" value="" style="rounded=0;whiteSpace=wrap;html=1;fillColor=none;" parent="1" vertex="1">
          <mxGeometry x="162.5" y="565" width="120" height="60" as="geometry" />
        </mxCell>
        <mxCell id="jfasmR0OCqM8boGMBwTv-3" value="" style="rounded=0;whiteSpace=wrap;html=1;fillColor=none;" parent="1" vertex="1">
          <mxGeometry x="572.5" y="285" width="120" height="60" as="geometry" />
        </mxCell>
        <mxCell id="jfasmR0OCqM8boGMBwTv-5" value="" style="rounded=0;whiteSpace=wrap;html=1;fillColor=none;" parent="1" vertex="1">
          <mxGeometry x="572.5" y="565" width="120" height="60" as="geometry" />
        </mxCell>
        <mxCell id="jfasmR0OCqM8boGMBwTv-6" value="" style="rounded=0;whiteSpace=wrap;html=1;fillColor=none;" parent="1" vertex="1">
          <mxGeometry x="567.5" y="280" width="130" height="70" as="geometry" />
        </mxCell>
        <mxCell id="jfasmR0OCqM8boGMBwTv-7" value="" style="rhombus;whiteSpace=wrap;html=1;fillColor=none;direction=west;" parent="1" vertex="1">
          <mxGeometry x="392.5" y="350" width="80" height="80" as="geometry" />
        </mxCell>
        <mxCell id="jfasmR0OCqM8boGMBwTv-8" value="" style="rhombus;whiteSpace=wrap;html=1;fillColor=none;direction=west;" parent="1" vertex="1">
          <mxGeometry x="387.5" y="345" width="90" height="90" as="geometry" />
        </mxCell>
        <mxCell id="jfasmR0OCqM8boGMBwTv-9" value="" style="rhombus;whiteSpace=wrap;html=1;fillColor=none;" parent="1" vertex="1">
          <mxGeometry x="592.5" y="425" width="80" height="80" as="geometry" />
        </mxCell>
        <mxCell id="jfasmR0OCqM8boGMBwTv-10" value="" style="rhombus;whiteSpace=wrap;html=1;fillColor=none;" parent="1" vertex="1">
          <mxGeometry x="587.5" y="420" width="90" height="90" as="geometry" />
        </mxCell>
        <mxCell id="TAb4gw5Ccqg74OA3bWBP-1" value="" style="rhombus;whiteSpace=wrap;html=1;fillColor=none;" parent="1" vertex="1">
          <mxGeometry x="387.5" y="225" width="80" height="80" as="geometry" />
        </mxCell>
        <mxCell id="TAb4gw5Ccqg74OA3bWBP-2" value="" style="rhombus;whiteSpace=wrap;html=1;fillColor=none;" parent="1" vertex="1">
          <mxGeometry x="382.5" y="220" width="90" height="90" as="geometry" />
        </mxCell>
        <mxCell id="p88n4L2O9h-3k0rjG7kn-1" value="" style="endArrow=none;html=1;rounded=0;entryX=0;entryY=0.5;entryDx=0;entryDy=0;exitX=1;exitY=0.5;exitDx=0;exitDy=0;" parent="1" source="jfasmR0OCqM8boGMBwTv-1" target="TAb4gw5Ccqg74OA3bWBP-2" edge="1">
          <mxGeometry width="50" height="50" relative="1" as="geometry">
            <mxPoint x="282.5" y="285" as="sourcePoint" />
            <mxPoint x="332.5" y="235" as="targetPoint" />
          </mxGeometry>
        </mxCell>
        <mxCell id="p88n4L2O9h-3k0rjG7kn-3" value="" style="endArrow=none;html=1;rounded=0;exitX=1;exitY=0.5;exitDx=0;exitDy=0;entryX=0;entryY=0.5;entryDx=0;entryDy=0;" parent="1" source="TAb4gw5Ccqg74OA3bWBP-2" target="jfasmR0OCqM8boGMBwTv-6" edge="1">
          <mxGeometry width="50" height="50" relative="1" as="geometry">
            <mxPoint x="492.5" y="245" as="sourcePoint" />
            <mxPoint x="542.5" y="195" as="targetPoint" />
          </mxGeometry>
        </mxCell>
        <mxCell id="p88n4L2O9h-3k0rjG7kn-5" value="" style="endArrow=none;html=1;rounded=0;entryX=0;entryY=0.531;entryDx=0;entryDy=0;entryPerimeter=0;exitX=0.975;exitY=0.524;exitDx=0;exitDy=0;exitPerimeter=0;" parent="1" source="TAb4gw5Ccqg74OA3bWBP-2" target="jfasmR0OCqM8boGMBwTv-6" edge="1">
          <mxGeometry width="50" height="50" relative="1" as="geometry">
            <mxPoint x="472.5" y="267" as="sourcePoint" />
            <mxPoint x="512.5" y="295" as="targetPoint" />
          </mxGeometry>
        </mxCell>
        <mxCell id="p88n4L2O9h-3k0rjG7kn-7" value="" style="endArrow=none;html=1;rounded=0;exitX=1;exitY=1;exitDx=0;exitDy=0;entryX=1;entryY=0.5;entryDx=0;entryDy=0;" parent="1" source="jfasmR0OCqM8boGMBwTv-1" target="jfasmR0OCqM8boGMBwTv-8" edge="1">
          <mxGeometry width="50" height="50" relative="1" as="geometry">
            <mxPoint x="292.5" y="405" as="sourcePoint" />
            <mxPoint x="342.5" y="355" as="targetPoint" />
          </mxGeometry>
        </mxCell>
        <mxCell id="p88n4L2O9h-3k0rjG7kn-8" value="" style="endArrow=none;html=1;rounded=0;exitX=0;exitY=0.5;exitDx=0;exitDy=0;entryX=0;entryY=1;entryDx=0;entryDy=0;" parent="1" source="jfasmR0OCqM8boGMBwTv-8" target="jfasmR0OCqM8boGMBwTv-6" edge="1">
          <mxGeometry width="50" height="50" relative="1" as="geometry">
            <mxPoint x="512.5" y="425" as="sourcePoint" />
            <mxPoint x="562.5" y="375" as="targetPoint" />
          </mxGeometry>
        </mxCell>
        <mxCell id="p88n4L2O9h-3k0rjG7kn-9" value="" style="endArrow=none;html=1;rounded=0;exitX=0.019;exitY=0.477;exitDx=0;exitDy=0;exitPerimeter=0;entryX=0.022;entryY=1.008;entryDx=0;entryDy=0;entryPerimeter=0;" parent="1" source="jfasmR0OCqM8boGMBwTv-8" target="jfasmR0OCqM8boGMBwTv-6" edge="1">
          <mxGeometry width="50" height="50" relative="1" as="geometry">
            <mxPoint x="522.5" y="425" as="sourcePoint" />
            <mxPoint x="572.5" y="351" as="targetPoint" />
          </mxGeometry>
        </mxCell>
        <mxCell id="p88n4L2O9h-3k0rjG7kn-10" value="" style="endArrow=none;html=1;rounded=0;exitX=0.5;exitY=0;exitDx=0;exitDy=0;entryX=0.5;entryY=1;entryDx=0;entryDy=0;" parent="1" source="jfasmR0OCqM8boGMBwTv-10" target="jfasmR0OCqM8boGMBwTv-6" edge="1">
          <mxGeometry width="50" height="50" relative="1" as="geometry">
            <mxPoint x="602.5" y="415" as="sourcePoint" />
            <mxPoint x="652.5" y="365" as="targetPoint" />
          </mxGeometry>
        </mxCell>
        <mxCell id="p88n4L2O9h-3k0rjG7kn-12" value="" style="endArrow=none;html=1;rounded=0;exitX=0.479;exitY=0.013;exitDx=0;exitDy=0;exitPerimeter=0;entryX=0.481;entryY=1.007;entryDx=0;entryDy=0;entryPerimeter=0;" parent="1" source="jfasmR0OCqM8boGMBwTv-10" target="jfasmR0OCqM8boGMBwTv-6" edge="1">
          <mxGeometry width="50" height="50" relative="1" as="geometry">
            <mxPoint x="572.5" y="435" as="sourcePoint" />
            <mxPoint x="622.5" y="385" as="targetPoint" />
          </mxGeometry>
        </mxCell>
        <mxCell id="p88n4L2O9h-3k0rjG7kn-13" value="" style="endArrow=none;html=1;rounded=0;entryX=0.5;entryY=1;entryDx=0;entryDy=0;exitX=0.5;exitY=0;exitDx=0;exitDy=0;" parent="1" source="jfasmR0OCqM8boGMBwTv-5" target="jfasmR0OCqM8boGMBwTv-10" edge="1">
          <mxGeometry width="50" height="50" relative="1" as="geometry">
            <mxPoint x="502.5" y="545" as="sourcePoint" />
            <mxPoint x="552.5" y="495" as="targetPoint" />
          </mxGeometry>
        </mxCell>
        <mxCell id="p88n4L2O9h-3k0rjG7kn-14" value="" style="rhombus;whiteSpace=wrap;html=1;fillColor=none;" parent="1" vertex="1">
          <mxGeometry x="392.5" y="555" width="80" height="80" as="geometry" />
        </mxCell>
        <mxCell id="p88n4L2O9h-3k0rjG7kn-15" value="" style="endArrow=none;html=1;rounded=0;exitX=1;exitY=0.5;exitDx=0;exitDy=0;entryX=0;entryY=0.5;entryDx=0;entryDy=0;" parent="1" source="jfasmR0OCqM8boGMBwTv-2" target="p88n4L2O9h-3k0rjG7kn-14" edge="1">
          <mxGeometry width="50" height="50" relative="1" as="geometry">
            <mxPoint x="302.5" y="585" as="sourcePoint" />
            <mxPoint x="352.5" y="535" as="targetPoint" />
          </mxGeometry>
        </mxCell>
        <mxCell id="p88n4L2O9h-3k0rjG7kn-16" value="" style="endArrow=none;html=1;rounded=0;exitX=0.966;exitY=0.469;exitDx=0;exitDy=0;exitPerimeter=0;entryX=0.002;entryY=0.464;entryDx=0;entryDy=0;entryPerimeter=0;" parent="1" source="p88n4L2O9h-3k0rjG7kn-14" target="jfasmR0OCqM8boGMBwTv-5" edge="1">
          <mxGeometry width="50" height="50" relative="1" as="geometry">
            <mxPoint x="502.5" y="585" as="sourcePoint" />
            <mxPoint x="542.5" y="545" as="targetPoint" />
          </mxGeometry>
        </mxCell>
        <mxCell id="p88n4L2O9h-3k0rjG7kn-17" value="" style="endArrow=none;html=1;rounded=0;exitX=1;exitY=0.5;exitDx=0;exitDy=0;entryX=0;entryY=0.5;entryDx=0;entryDy=0;" parent="1" source="p88n4L2O9h-3k0rjG7kn-14" target="jfasmR0OCqM8boGMBwTv-5" edge="1">
          <mxGeometry width="50" height="50" relative="1" as="geometry">
            <mxPoint x="492.5" y="585" as="sourcePoint" />
            <mxPoint x="542.5" y="535" as="targetPoint" />
          </mxGeometry>
        </mxCell>
        <mxCell id="p88n4L2O9h-3k0rjG7kn-18" value="" style="endArrow=none;html=1;rounded=0;exitX=1;exitY=0.453;exitDx=0;exitDy=0;exitPerimeter=0;entryX=0.029;entryY=0.465;entryDx=0;entryDy=0;entryPerimeter=0;" parent="1" source="jfasmR0OCqM8boGMBwTv-2" target="p88n4L2O9h-3k0rjG7kn-14" edge="1">
          <mxGeometry width="50" height="50" relative="1" as="geometry">
            <mxPoint x="312.5" y="565" as="sourcePoint" />
            <mxPoint x="362.5" y="515" as="targetPoint" />
          </mxGeometry>
        </mxCell>
        <mxCell id="wVh_IVsP_lLKcewH6hIJ-1" value="User" style="text;html=1;align=center;verticalAlign=middle;whiteSpace=wrap;rounded=0;" parent="1" vertex="1">
          <mxGeometry x="192.5" y="300" width="60" height="30" as="geometry" />
        </mxCell>
        <mxCell id="wVh_IVsP_lLKcewH6hIJ-2" value="Place" style="text;html=1;align=center;verticalAlign=middle;whiteSpace=wrap;rounded=0;" parent="1" vertex="1">
          <mxGeometry x="402.5" y="375" width="60" height="30" as="geometry" />
        </mxCell>
        <mxCell id="wVh_IVsP_lLKcewH6hIJ-3" value="Deliver" style="text;html=1;align=center;verticalAlign=middle;whiteSpace=wrap;rounded=0;" parent="1" vertex="1">
          <mxGeometry x="397.5" y="250" width="60" height="30" as="geometry" />
        </mxCell>
        <mxCell id="wVh_IVsP_lLKcewH6hIJ-4" value="Order" style="text;html=1;align=center;verticalAlign=middle;whiteSpace=wrap;rounded=0;" parent="1" vertex="1">
          <mxGeometry x="602.5" y="300" width="60" height="30" as="geometry" />
        </mxCell>
        <mxCell id="wVh_IVsP_lLKcewH6hIJ-5" value="Contain" style="text;html=1;align=center;verticalAlign=middle;whiteSpace=wrap;rounded=0;" parent="1" vertex="1">
          <mxGeometry x="602.5" y="450" width="60" height="30" as="geometry" />
        </mxCell>
        <mxCell id="wVh_IVsP_lLKcewH6hIJ-6" value="Has" style="text;html=1;align=center;verticalAlign=middle;whiteSpace=wrap;rounded=0;" parent="1" vertex="1">
          <mxGeometry x="402.5" y="580" width="60" height="30" as="geometry" />
        </mxCell>
        <mxCell id="wVh_IVsP_lLKcewH6hIJ-7" value="Restaurant" style="text;html=1;align=center;verticalAlign=middle;whiteSpace=wrap;rounded=0;direction=south;" parent="1" vertex="1">
          <mxGeometry x="207.5" y="565" width="30" height="60" as="geometry" />
        </mxCell>
        <mxCell id="wVh_IVsP_lLKcewH6hIJ-8" value="Meal" style="text;html=1;align=center;verticalAlign=middle;whiteSpace=wrap;rounded=0;" parent="1" vertex="1">
          <mxGeometry x="602.5" y="580" width="60" height="30" as="geometry" />
        </mxCell>
        <mxCell id="hgy4hpAm0vV_vkZDBC3N-1" value="Own" style="rhombus;whiteSpace=wrap;html=1;fillColor=none;" vertex="1" parent="1">
          <mxGeometry x="182.5" y="430" width="80" height="80" as="geometry" />
        </mxCell>
        <mxCell id="hgy4hpAm0vV_vkZDBC3N-2" value="" style="endArrow=none;html=1;rounded=0;exitX=0;exitY=0.5;exitDx=0;exitDy=0;entryX=0.5;entryY=1;entryDx=0;entryDy=0;" edge="1" parent="1" source="wVh_IVsP_lLKcewH6hIJ-7" target="hgy4hpAm0vV_vkZDBC3N-1">
          <mxGeometry width="50" height="50" relative="1" as="geometry">
            <mxPoint x="262.5" y="545" as="sourcePoint" />
            <mxPoint x="312.5" y="495" as="targetPoint" />
          </mxGeometry>
        </mxCell>
        <mxCell id="hgy4hpAm0vV_vkZDBC3N-4" value="" style="endArrow=none;html=1;rounded=0;exitX=0.5;exitY=0;exitDx=0;exitDy=0;entryX=0.5;entryY=1;entryDx=0;entryDy=0;" edge="1" parent="1" source="hgy4hpAm0vV_vkZDBC3N-1" target="jfasmR0OCqM8boGMBwTv-1">
          <mxGeometry width="50" height="50" relative="1" as="geometry">
            <mxPoint x="202.5" y="415" as="sourcePoint" />
            <mxPoint x="252.5" y="365" as="targetPoint" />
          </mxGeometry>
        </mxCell>
        <mxCell id="hgy4hpAm0vV_vkZDBC3N-5" value="" style="endArrow=none;html=1;rounded=0;exitX=0.009;exitY=0.423;exitDx=0;exitDy=0;exitPerimeter=0;entryX=0.527;entryY=0.983;entryDx=0;entryDy=0;entryPerimeter=0;" edge="1" parent="1" source="wVh_IVsP_lLKcewH6hIJ-7" target="hgy4hpAm0vV_vkZDBC3N-1">
          <mxGeometry width="50" height="50" relative="1" as="geometry">
            <mxPoint x="242.5" y="555" as="sourcePoint" />
            <mxPoint x="292.5" y="505" as="targetPoint" />
          </mxGeometry>
        </mxCell>
        <mxCell id="hgy4hpAm0vV_vkZDBC3N-6" value="1" style="text;html=1;align=center;verticalAlign=middle;whiteSpace=wrap;rounded=0;" vertex="1" parent="1">
          <mxGeometry x="202.5" y="405" width="20" height="20" as="geometry" />
        </mxCell>
        <mxCell id="hgy4hpAm0vV_vkZDBC3N-7" value="n" style="text;html=1;align=center;verticalAlign=middle;whiteSpace=wrap;rounded=0;" vertex="1" parent="1">
          <mxGeometry x="472.5" y="575" width="20" height="15" as="geometry" />
        </mxCell>
        <mxCell id="hgy4hpAm0vV_vkZDBC3N-8" value="n" style="text;html=1;align=center;verticalAlign=middle;whiteSpace=wrap;rounded=0;" vertex="1" parent="1">
          <mxGeometry x="477.5" y="250" width="15" height="15" as="geometry" />
        </mxCell>
        <mxCell id="hgy4hpAm0vV_vkZDBC3N-9" value="n" style="text;html=1;align=center;verticalAlign=middle;whiteSpace=wrap;rounded=0;" vertex="1" parent="1">
          <mxGeometry x="612.5" y="505" width="15" height="20" as="geometry" />
        </mxCell>
        <mxCell id="hgy4hpAm0vV_vkZDBC3N-10" value="n" style="text;html=1;align=center;verticalAlign=middle;whiteSpace=wrap;rounded=0;" vertex="1" parent="1">
          <mxGeometry x="612.5" y="400" width="15" height="20" as="geometry" />
        </mxCell>
        <mxCell id="hgy4hpAm0vV_vkZDBC3N-11" value="1" style="text;html=1;align=center;verticalAlign=middle;whiteSpace=wrap;rounded=0;" vertex="1" parent="1">
          <mxGeometry x="377.5" y="575" width="15" height="20" as="geometry" />
        </mxCell>
        <mxCell id="hgy4hpAm0vV_vkZDBC3N-13" value="n" style="text;html=1;align=center;verticalAlign=middle;whiteSpace=wrap;rounded=0;" vertex="1" parent="1">
          <mxGeometry x="477.5" y="395" width="15" height="20" as="geometry" />
        </mxCell>
        <mxCell id="hgy4hpAm0vV_vkZDBC3N-14" value="1" style="text;html=1;align=center;verticalAlign=middle;whiteSpace=wrap;rounded=0;" vertex="1" parent="1">
          <mxGeometry x="372.5" y="400" width="15" height="15" as="geometry" />
        </mxCell>
        <mxCell id="hgy4hpAm0vV_vkZDBC3N-15" value="1" style="text;html=1;align=center;verticalAlign=middle;whiteSpace=wrap;rounded=0;" vertex="1" parent="1">
          <mxGeometry x="372.5" y="245" width="10" height="20" as="geometry" />
        </mxCell>
        <mxCell id="hgy4hpAm0vV_vkZDBC3N-16" value="1" style="text;html=1;align=center;verticalAlign=middle;whiteSpace=wrap;rounded=0;" vertex="1" parent="1">
          <mxGeometry x="202.5" y="510" width="10" height="15" as="geometry" />
        </mxCell>
        <mxCell id="hgy4hpAm0vV_vkZDBC3N-17" value="&lt;u&gt;usrename&lt;/u&gt;" style="ellipse;whiteSpace=wrap;html=1;fillColor=none;" vertex="1" parent="1">
          <mxGeometry x="275" y="190" width="102.5" height="50" as="geometry" />
        </mxCell>
        <mxCell id="hgy4hpAm0vV_vkZDBC3N-18" value="name" style="ellipse;whiteSpace=wrap;html=1;fillColor=none;" vertex="1" parent="1">
          <mxGeometry x="30" y="280" width="102.5" height="60" as="geometry" />
        </mxCell>
        <mxCell id="hgy4hpAm0vV_vkZDBC3N-19" value="address" style="ellipse;whiteSpace=wrap;html=1;fillColor=none;" vertex="1" parent="1">
          <mxGeometry x="161.25" y="140" width="102.5" height="60" as="geometry" />
        </mxCell>
        <mxCell id="hgy4hpAm0vV_vkZDBC3N-20" value="&lt;u&gt;order_num&lt;/u&gt;" style="ellipse;whiteSpace=wrap;html=1;fillColor=none;" vertex="1" parent="1">
          <mxGeometry x="713.75" y="165" width="112.5" height="60" as="geometry" />
        </mxCell>
        <mxCell id="hgy4hpAm0vV_vkZDBC3N-21" value="date" style="ellipse;whiteSpace=wrap;html=1;fillColor=none;" vertex="1" parent="1">
          <mxGeometry x="722.5" y="280" width="107.5" height="60" as="geometry" />
        </mxCell>
        <mxCell id="hgy4hpAm0vV_vkZDBC3N-22" value="password" style="ellipse;whiteSpace=wrap;html=1;fillColor=none;" vertex="1" parent="1">
          <mxGeometry x="30" y="185" width="102.5" height="60" as="geometry" />
        </mxCell>
        <mxCell id="hgy4hpAm0vV_vkZDBC3N-24" value="" style="endArrow=none;html=1;rounded=0;exitX=1;exitY=0.5;exitDx=0;exitDy=0;entryX=0;entryY=1;entryDx=0;entryDy=0;" edge="1" parent="1" source="hgy4hpAm0vV_vkZDBC3N-46" target="jfasmR0OCqM8boGMBwTv-1">
          <mxGeometry width="50" height="50" relative="1" as="geometry">
            <mxPoint x="150" y="410" as="sourcePoint" />
            <mxPoint x="200" y="360" as="targetPoint" />
          </mxGeometry>
        </mxCell>
        <mxCell id="hgy4hpAm0vV_vkZDBC3N-25" value="" style="endArrow=none;html=1;rounded=0;exitX=0.865;exitY=0;exitDx=0;exitDy=0;exitPerimeter=0;entryX=0;entryY=1;entryDx=0;entryDy=0;" edge="1" parent="1" source="jfasmR0OCqM8boGMBwTv-6" target="hgy4hpAm0vV_vkZDBC3N-20">
          <mxGeometry width="50" height="50" relative="1" as="geometry">
            <mxPoint x="382.5" y="120" as="sourcePoint" />
            <mxPoint x="432.5" y="70" as="targetPoint" />
          </mxGeometry>
        </mxCell>
        <mxCell id="hgy4hpAm0vV_vkZDBC3N-26" value="" style="endArrow=none;html=1;rounded=0;exitX=0.5;exitY=0;exitDx=0;exitDy=0;entryX=0.5;entryY=1;entryDx=0;entryDy=0;" edge="1" parent="1" source="jfasmR0OCqM8boGMBwTv-6" target="hgy4hpAm0vV_vkZDBC3N-43">
          <mxGeometry width="50" height="50" relative="1" as="geometry">
            <mxPoint x="595" y="160" as="sourcePoint" />
            <mxPoint x="645" y="110" as="targetPoint" />
          </mxGeometry>
        </mxCell>
        <mxCell id="hgy4hpAm0vV_vkZDBC3N-27" value="" style="endArrow=none;html=1;rounded=0;exitX=1;exitY=0.5;exitDx=0;exitDy=0;entryX=0;entryY=0.5;entryDx=0;entryDy=0;" edge="1" parent="1" source="hgy4hpAm0vV_vkZDBC3N-18" target="jfasmR0OCqM8boGMBwTv-1">
          <mxGeometry width="50" height="50" relative="1" as="geometry">
            <mxPoint x="100" y="415" as="sourcePoint" />
            <mxPoint x="150" y="365" as="targetPoint" />
          </mxGeometry>
        </mxCell>
        <mxCell id="hgy4hpAm0vV_vkZDBC3N-28" value="" style="endArrow=none;html=1;rounded=0;exitX=0;exitY=0;exitDx=0;exitDy=0;entryX=1;entryY=1;entryDx=0;entryDy=0;" edge="1" parent="1" source="jfasmR0OCqM8boGMBwTv-1" target="hgy4hpAm0vV_vkZDBC3N-22">
          <mxGeometry width="50" height="50" relative="1" as="geometry">
            <mxPoint x="142.5" y="270" as="sourcePoint" />
            <mxPoint x="192.5" y="220" as="targetPoint" />
          </mxGeometry>
        </mxCell>
        <mxCell id="hgy4hpAm0vV_vkZDBC3N-29" value="" style="endArrow=none;html=1;rounded=0;exitX=0.75;exitY=0;exitDx=0;exitDy=0;entryX=0.5;entryY=1;entryDx=0;entryDy=0;" edge="1" parent="1" source="jfasmR0OCqM8boGMBwTv-1" target="hgy4hpAm0vV_vkZDBC3N-17">
          <mxGeometry width="50" height="50" relative="1" as="geometry">
            <mxPoint x="252.5" y="280" as="sourcePoint" />
            <mxPoint x="302.5" y="230" as="targetPoint" />
          </mxGeometry>
        </mxCell>
        <mxCell id="hgy4hpAm0vV_vkZDBC3N-30" value="" style="endArrow=none;html=1;rounded=0;exitX=0.5;exitY=0;exitDx=0;exitDy=0;entryX=0.5;entryY=1;entryDx=0;entryDy=0;" edge="1" parent="1" source="jfasmR0OCqM8boGMBwTv-1" target="hgy4hpAm0vV_vkZDBC3N-19">
          <mxGeometry width="50" height="50" relative="1" as="geometry">
            <mxPoint x="207.5" y="275" as="sourcePoint" />
            <mxPoint x="257.5" y="225" as="targetPoint" />
          </mxGeometry>
        </mxCell>
        <mxCell id="hgy4hpAm0vV_vkZDBC3N-31" value="name" style="ellipse;whiteSpace=wrap;html=1;fillColor=none;" vertex="1" parent="1">
          <mxGeometry x="30" y="580" width="92.5" height="45" as="geometry" />
        </mxCell>
        <mxCell id="hgy4hpAm0vV_vkZDBC3N-38" value="&lt;u&gt;meal_id&lt;/u&gt;" style="ellipse;whiteSpace=wrap;html=1;fillColor=none;" vertex="1" parent="1">
          <mxGeometry x="477.5" y="660" width="110" height="50" as="geometry" />
        </mxCell>
        <mxCell id="hgy4hpAm0vV_vkZDBC3N-39" value="name" style="ellipse;whiteSpace=wrap;html=1;fillColor=none;" vertex="1" parent="1">
          <mxGeometry x="595" y="710" width="107.5" height="55" as="geometry" />
        </mxCell>
        <mxCell id="hgy4hpAm0vV_vkZDBC3N-43" value="price" style="ellipse;whiteSpace=wrap;html=1;fillColor=none;" vertex="1" parent="1">
          <mxGeometry x="580" y="175" width="107.5" height="55" as="geometry" />
        </mxCell>
        <mxCell id="hgy4hpAm0vV_vkZDBC3N-44" value="price" style="ellipse;whiteSpace=wrap;html=1;fillColor=none;" vertex="1" parent="1">
          <mxGeometry x="713.75" y="680" width="102.5" height="60" as="geometry" />
        </mxCell>
        <mxCell id="hgy4hpAm0vV_vkZDBC3N-45" value="status" style="ellipse;whiteSpace=wrap;html=1;fillColor=none;" vertex="1" parent="1">
          <mxGeometry x="725" y="355" width="105" height="50" as="geometry" />
        </mxCell>
        <mxCell id="hgy4hpAm0vV_vkZDBC3N-46" value="kind" style="ellipse;whiteSpace=wrap;html=1;fillColor=none;" vertex="1" parent="1">
          <mxGeometry x="20" y="355" width="122.5" height="60" as="geometry" />
        </mxCell>
        <mxCell id="hgy4hpAm0vV_vkZDBC3N-52" value="rating" style="ellipse;whiteSpace=wrap;html=1;fillColor=none;" vertex="1" parent="1">
          <mxGeometry x="175" y="670" width="100" height="60" as="geometry" />
        </mxCell>
        <mxCell id="hgy4hpAm0vV_vkZDBC3N-54" value="" style="endArrow=none;html=1;rounded=0;exitX=0;exitY=0.5;exitDx=0;exitDy=0;entryX=1;entryY=1;entryDx=0;entryDy=0;" edge="1" parent="1" source="hgy4hpAm0vV_vkZDBC3N-45" target="jfasmR0OCqM8boGMBwTv-6">
          <mxGeometry width="50" height="50" relative="1" as="geometry">
            <mxPoint x="530" y="340" as="sourcePoint" />
            <mxPoint x="580" y="290" as="targetPoint" />
          </mxGeometry>
        </mxCell>
        <mxCell id="hgy4hpAm0vV_vkZDBC3N-55" value="" style="endArrow=none;html=1;rounded=0;exitX=0;exitY=0.5;exitDx=0;exitDy=0;entryX=1;entryY=0.5;entryDx=0;entryDy=0;" edge="1" parent="1" source="hgy4hpAm0vV_vkZDBC3N-21" target="jfasmR0OCqM8boGMBwTv-6">
          <mxGeometry width="50" height="50" relative="1" as="geometry">
            <mxPoint x="530" y="360" as="sourcePoint" />
            <mxPoint x="580" y="310" as="targetPoint" />
          </mxGeometry>
        </mxCell>
        <mxCell id="hgy4hpAm0vV_vkZDBC3N-56" value="" style="endArrow=none;html=1;rounded=0;exitX=0.5;exitY=0;exitDx=0;exitDy=0;entryX=0;entryY=1;entryDx=0;entryDy=0;" edge="1" parent="1" source="hgy4hpAm0vV_vkZDBC3N-38" target="jfasmR0OCqM8boGMBwTv-5">
          <mxGeometry width="50" height="50" relative="1" as="geometry">
            <mxPoint x="530" y="480" as="sourcePoint" />
            <mxPoint x="580" y="430" as="targetPoint" />
          </mxGeometry>
        </mxCell>
        <mxCell id="hgy4hpAm0vV_vkZDBC3N-57" value="" style="endArrow=none;html=1;rounded=0;exitX=0.5;exitY=0;exitDx=0;exitDy=0;entryX=0.5;entryY=1;entryDx=0;entryDy=0;" edge="1" parent="1" source="hgy4hpAm0vV_vkZDBC3N-39" target="jfasmR0OCqM8boGMBwTv-5">
          <mxGeometry width="50" height="50" relative="1" as="geometry">
            <mxPoint x="530" y="480" as="sourcePoint" />
            <mxPoint x="580" y="430" as="targetPoint" />
          </mxGeometry>
        </mxCell>
        <mxCell id="hgy4hpAm0vV_vkZDBC3N-59" value="" style="endArrow=none;html=1;rounded=0;exitX=0.5;exitY=0;exitDx=0;exitDy=0;entryX=1;entryY=1;entryDx=0;entryDy=0;" edge="1" parent="1" source="hgy4hpAm0vV_vkZDBC3N-44" target="jfasmR0OCqM8boGMBwTv-5">
          <mxGeometry width="50" height="50" relative="1" as="geometry">
            <mxPoint x="760" y="660" as="sourcePoint" />
            <mxPoint x="810" y="610" as="targetPoint" />
          </mxGeometry>
        </mxCell>
        <mxCell id="hgy4hpAm0vV_vkZDBC3N-60" value="" style="endArrow=none;html=1;rounded=0;exitX=1;exitY=0;exitDx=0;exitDy=0;entryX=0;entryY=0.5;entryDx=0;entryDy=0;" edge="1" parent="1" source="hgy4hpAm0vV_vkZDBC3N-31" target="jfasmR0OCqM8boGMBwTv-2">
          <mxGeometry width="50" height="50" relative="1" as="geometry">
            <mxPoint x="100" y="570" as="sourcePoint" />
            <mxPoint x="150" y="520" as="targetPoint" />
          </mxGeometry>
        </mxCell>
        <mxCell id="hgy4hpAm0vV_vkZDBC3N-61" value="" style="endArrow=none;html=1;rounded=0;exitX=0.5;exitY=0;exitDx=0;exitDy=0;entryX=0.75;entryY=1;entryDx=0;entryDy=0;" edge="1" parent="1" source="hgy4hpAm0vV_vkZDBC3N-52" target="jfasmR0OCqM8boGMBwTv-2">
          <mxGeometry width="50" height="50" relative="1" as="geometry">
            <mxPoint x="530" y="750" as="sourcePoint" />
            <mxPoint x="580" y="700" as="targetPoint" />
          </mxGeometry>
        </mxCell>
        <mxCell id="hgy4hpAm0vV_vkZDBC3N-63" value="&lt;u&gt;res_id&lt;/u&gt;" style="ellipse;whiteSpace=wrap;html=1;fillColor=none;" vertex="1" parent="1">
          <mxGeometry x="50" y="650" width="97.5" height="50" as="geometry" />
        </mxCell>
        <mxCell id="hgy4hpAm0vV_vkZDBC3N-65" value="" style="endArrow=none;html=1;rounded=0;exitX=1;exitY=0;exitDx=0;exitDy=0;entryX=0;entryY=1;entryDx=0;entryDy=0;" edge="1" parent="1" source="hgy4hpAm0vV_vkZDBC3N-63" target="jfasmR0OCqM8boGMBwTv-2">
          <mxGeometry width="50" height="50" relative="1" as="geometry">
            <mxPoint x="530" y="480" as="sourcePoint" />
            <mxPoint x="580" y="430" as="targetPoint" />
          </mxGeometry>
        </mxCell>
      </root>
    </mxGraphModel>
  </diagram>
</mxfile>
